<svg width="55" height="43" viewBox="0 0 55 43" fill="none" xmlns="http://www.w3.org/2000/svg">
<g filter="url(#filter0_d_64_463)">
<path d="M41.1244 17.5197L40.0706 14.9585L38.2022 10.4167C36.5981 6.51836 32.7722 4 28.4531 4H16.5469C12.2288 4 8.40187 6.51836 6.79781 10.4167L4.92938 14.9585L3.87563 17.5197C1.61438 18.3555 0 20.4664 0 22.9583V27.3333C0 28.8026 0.5775 30.1288 1.5 31.1551V36.0833C1.5 37.6939 2.84344 39 4.5 39H7.5C9.15656 39 10.5 37.6939 10.5 36.0833V33.1667H34.5V36.0833C34.5 37.6939 35.8434 39 37.5 39H40.5C42.1566 39 43.5 37.6939 43.5 36.0833V31.1551C44.4225 30.1297 45 28.8035 45 27.3333V22.9583C45 20.4664 43.3856 18.3555 41.1244 17.5197ZM12.3684 12.5832C13.0519 10.9225 14.7066 9.83333 16.5469 9.83333H28.4531C30.2934 9.83333 31.9481 10.9225 32.6316 12.5832L34.5 17.125H10.5L12.3684 12.5832ZM7.5 27.3151C5.7 27.3151 4.5 26.1521 4.5 24.4076C4.5 22.663 5.7 21.5 7.5 21.5C9.3 21.5 12 24.1168 12 25.8613C12 27.6059 9.3 27.3151 7.5 27.3151ZM37.5 27.3151C35.7 27.3151 33 27.6059 33 25.8613C33 24.1168 35.7 21.5 37.5 21.5C39.3 21.5 40.5 22.663 40.5 24.4076C40.5 26.1521 39.3 27.3151 37.5 27.3151Z" fill="#928D93"/>
</g>
<defs>
<filter id="filter0_d_64_463" x="0" y="0" width="55" height="43" filterUnits="userSpaceOnUse" color-interpolation-filters="sRGB">
<feFlood flood-opacity="0" result="BackgroundImageFix"/>
<feColorMatrix in="SourceAlpha" type="matrix" values="0 0 0 0 0 0 0 0 0 0 0 0 0 0 0 0 0 0 127 0" result="hardAlpha"/>
<feOffset dx="6"/>
<feGaussianBlur stdDeviation="2"/>
<feComposite in2="hardAlpha" operator="out"/>
<feColorMatrix type="matrix" values="0 0 0 0 0 0 0 0 0 0 0 0 0 0 0 0 0 0 0.25 0"/>
<feBlend mode="normal" in2="BackgroundImageFix" result="effect1_dropShadow_64_463"/>
<feBlend mode="normal" in="SourceGraphic" in2="effect1_dropShadow_64_463" result="shape"/>
</filter>
</defs>
</svg>
