<svg width="44" height="40" viewBox="0 0 44 40" fill="none" xmlns="http://www.w3.org/2000/svg">
<path d="M39.875 0.75H4.125C1.84766 0.75 0 2.59766 0 4.875V35.125C0 37.4023 1.84766 39.25 4.125 39.25H39.875C42.1523 39.25 44 37.4023 44 35.125V4.875C44 2.59766 42.1523 0.75 39.875 0.75ZM32.6906 25.7148C33.1031 26.1273 33.1031 26.7977 32.6906 27.2102L29.2102 30.6906C28.7977 31.1031 28.1273 31.1031 27.7148 30.6906L22 24.9242L16.2852 30.6906C15.8727 31.1031 15.2023 31.1031 14.7898 30.6906L11.3094 27.2102C10.8969 26.7977 10.8969 26.1273 11.3094 25.7148L17.0758 20L11.3094 14.2852C10.8969 13.8727 10.8969 13.2023 11.3094 12.7898L14.7898 9.30938C15.2023 8.89688 15.8727 8.89688 16.2852 9.30938L22 15.0758L27.7148 9.30938C28.1273 8.89688 28.7977 8.89688 29.2102 9.30938L32.6906 12.7898C33.1031 13.2023 33.1031 13.8727 32.6906 14.2852L26.9242 20L32.6906 25.7148Z" fill="#B08C80"/>
</svg>
