<svg width="30" height="17" viewBox="0 0 30 17" fill="none" xmlns="http://www.w3.org/2000/svg">
<path d="M28.8701 7.69965C26.1355 3.1072 20.7217 0 14.5228 0C8.32387 0 2.90857 3.10938 0.175457 7.70009C0.0601019 7.89649 0 8.11348 0 8.33355C0 8.55362 0.0601019 8.77061 0.175457 8.96701C2.91008 13.5595 8.32387 16.6667 14.5228 16.6667C20.7217 16.6667 26.137 13.5573 28.8701 8.96658C28.9855 8.77018 29.0456 8.55319 29.0456 8.33312C29.0456 8.11304 28.9855 7.89605 28.8701 7.69965ZM14.5228 14.5833C13.0866 14.5833 11.6827 14.2168 10.4886 13.53C9.29444 12.8433 8.36372 11.8671 7.81413 10.7251C7.26453 9.58307 7.12073 8.3264 7.40091 7.11402C7.68109 5.90164 8.37267 4.78799 9.3882 3.91392C10.4037 3.03984 11.6976 2.44458 13.1062 2.20343C14.5147 1.96227 15.9748 2.08604 17.3016 2.55909C18.6285 3.03213 19.7625 3.83321 20.5604 4.86102C21.3583 5.88883 21.7842 7.0972 21.7842 8.33333C21.7847 9.15421 21.5972 9.96711 21.2324 10.7256C20.8677 11.484 20.3328 12.1732 19.6584 12.7536C18.984 13.3341 18.1834 13.7944 17.3022 14.1084C16.421 14.4223 15.4765 14.5837 14.5228 14.5833ZM14.5228 4.16667C14.0907 4.17186 13.6614 4.22719 13.2465 4.33116C13.5885 4.73119 13.7526 5.22347 13.7091 5.71873C13.6656 6.21398 13.4173 6.6794 13.0092 7.0306C12.6012 7.38179 12.0605 7.5955 11.4851 7.63297C10.9097 7.67043 10.3377 7.52917 9.87297 7.23481C9.60831 8.07404 9.65609 8.96357 10.0096 9.77821C10.363 10.5928 11.0044 11.2916 11.8434 11.776C12.6825 12.2605 13.6768 12.5063 14.6867 12.4788C15.6965 12.4514 16.6709 12.152 17.4727 11.623C18.2745 11.0939 18.8634 10.3617 19.1564 9.52951C19.4494 8.69729 19.4319 7.80694 19.1062 6.98376C18.7805 6.16058 18.1632 5.44602 17.3409 4.94067C16.5187 4.43532 15.5331 4.16462 14.5228 4.16667Z" fill="#C39EC9"/>
</svg>
