<svg width="69" height="69" viewBox="0 0 69 69" fill="none" xmlns="http://www.w3.org/2000/svg">
<rect width="69" height="69" fill="white"/>
<path d="M58.2188 4.3125H10.7812C9.06563 4.3125 7.42028 4.99403 6.20715 6.20715C4.99403 7.42028 4.3125 9.06563 4.3125 10.7812L4.3125 58.2188C4.3125 59.9344 4.99403 61.5797 6.20715 62.7928C7.42028 64.006 9.06563 64.6875 10.7812 64.6875H29.2778V44.1613H20.7876V34.5H29.2778V27.1364C29.2778 18.7607 34.2642 14.1342 41.9013 14.1342C45.5589 14.1342 49.3835 14.7865 49.3835 14.7865V23.0072H45.1694C41.0173 23.0072 39.7222 25.5839 39.7222 28.2267V34.5H48.9913L47.5089 44.1613H39.7222V64.6875H58.2188C59.9344 64.6875 61.5797 64.006 62.7928 62.7928C64.006 61.5797 64.6875 59.9344 64.6875 58.2188V10.7812C64.6875 9.06563 64.006 7.42028 62.7928 6.20715C61.5797 4.99403 59.9344 4.3125 58.2188 4.3125Z" fill="#C39EC9"/>
</svg>
