<svg width="69" height="69" viewBox="0 0 69 69" fill="none" xmlns="http://www.w3.org/2000/svg">
<rect width="69" height="69" fill="white"/>
<path d="M34.5135 19.002C25.9424 19.002 19.0289 25.9155 19.0289 34.4865C19.0289 43.0576 25.9424 49.9711 34.5135 49.9711C43.0846 49.9711 49.9981 43.0576 49.9981 34.4865C49.9981 25.9155 43.0846 19.002 34.5135 19.002ZM34.5135 44.5535C28.9746 44.5535 24.4465 40.0389 24.4465 34.4865C24.4465 28.9342 28.9611 24.4196 34.5135 24.4196C40.0658 24.4196 44.5805 28.9342 44.5805 34.4865C44.5805 40.0389 40.0523 44.5535 34.5135 44.5535ZM54.2432 18.3686C54.2432 20.3766 52.626 21.9803 50.6315 21.9803C48.6234 21.9803 47.0197 20.3631 47.0197 18.3686C47.0197 16.374 48.6369 14.7569 50.6315 14.7569C52.626 14.7569 54.2432 16.374 54.2432 18.3686ZM64.4988 22.0342C64.2697 17.1961 63.1647 12.9106 59.6203 9.37971C56.0895 5.84885 51.8039 4.74377 46.9658 4.5012C41.9795 4.21819 27.034 4.21819 22.0477 4.5012C17.2231 4.7303 12.9375 5.83538 9.39317 9.36624C5.84883 12.8971 4.75723 17.1826 4.51465 22.0207C4.23165 27.0071 4.23165 41.9526 4.51465 46.9389C4.74376 51.777 5.84883 56.0625 9.39317 59.5934C12.9375 63.1242 17.2096 64.2293 22.0477 64.4719C27.034 64.7549 41.9795 64.7549 46.9658 64.4719C51.8039 64.2428 56.0895 63.1377 59.6203 59.5934C63.1512 56.0625 64.2563 51.777 64.4988 46.9389C64.7818 41.9526 64.7818 27.0205 64.4988 22.0342ZM58.057 52.2891C57.0059 54.9305 54.9709 56.9655 52.316 58.0301C48.3404 59.6069 38.9068 59.243 34.5135 59.243C30.1201 59.243 20.6731 59.5934 16.7109 58.0301C14.0695 56.9789 12.0346 54.944 10.9699 52.2891C9.39317 48.3135 9.75704 38.8799 9.75704 34.4865C9.75704 30.0932 9.40665 20.6461 10.9699 16.684C12.0211 14.0426 14.0561 12.0076 16.7109 10.943C20.6865 9.36623 30.1201 9.7301 34.5135 9.7301C38.9068 9.7301 48.3539 9.37971 52.316 10.943C54.9574 11.9942 56.9924 14.0291 58.057 16.684C59.6338 20.6596 59.2699 30.0932 59.2699 34.4865C59.2699 38.8799 59.6338 48.327 58.057 52.2891Z" fill="#C39EC9"/>
</svg>
