<svg width="69" height="69" viewBox="0 0 69 69" fill="none" xmlns="http://www.w3.org/2000/svg">
<rect width="69" height="69" fill="#C39EC9"/>
<path d="M17.8268 60.3749H5.30977V20.0665H17.8268V60.3749ZM11.5615 14.568C7.559 14.568 4.3125 11.2528 4.3125 7.25026C4.3125 5.3277 5.07624 3.48388 6.4357 2.12442C7.79515 0.764957 9.63898 0.0012207 11.5615 0.0012207C13.4841 0.0012207 15.3279 0.764957 16.6874 2.12442C18.0468 3.48388 18.8106 5.3277 18.8106 7.25026C18.8106 11.2528 15.5627 14.568 11.5615 14.568ZM64.674 60.3749H52.1839V40.753C52.1839 36.0766 52.0896 30.0796 45.6761 30.0796C39.1683 30.0796 38.171 35.1602 38.171 40.4161V60.3749H25.6675V20.0665H37.6724V25.5649H37.8476C39.5187 22.3979 43.6007 19.0557 49.6908 19.0557C62.3587 19.0557 64.6875 27.3977 64.6875 38.2329V60.3749H64.674Z" fill="white"/>
</svg>
