<svg width="55" height="43" viewBox="0 0 55 43" fill="none" xmlns="http://www.w3.org/2000/svg">
<g filter="url(#filter0_d_64_477)">
<path d="M41.2594 24.598L44.9526 10.3792C45.2192 9.35261 44.3274 8.375 43.1242 8.375H12.4381L11.722 5.31182C11.5436 4.54831 10.7758 4 9.88508 4H1.875C0.839453 4 0 4.73452 0 5.64062V6.73438C0 7.64048 0.839453 8.375 1.875 8.375H7.33461L12.8227 31.852C11.5098 32.5127 10.625 33.7515 10.625 35.1719C10.625 37.2861 12.5838 39 15 39C17.4163 39 19.375 37.2861 19.375 35.1719C19.375 34.1004 18.8713 33.1324 18.0606 32.4375H34.4393C33.6287 33.1324 33.125 34.1004 33.125 35.1719C33.125 37.2861 35.0838 39 37.5 39C39.9163 39 41.875 37.2861 41.875 35.1719C41.875 33.6562 40.8681 32.3464 39.4079 31.7262L39.8389 30.0667C40.1056 29.0401 39.2138 28.0625 38.0106 28.0625H17.0404L16.5291 25.875H39.431C40.3065 25.875 41.0654 25.3449 41.2594 24.598Z" fill="#928D93"/>
</g>
<defs>
<filter id="filter0_d_64_477" x="0" y="0" width="55" height="43" filterUnits="userSpaceOnUse" color-interpolation-filters="sRGB">
<feFlood flood-opacity="0" result="BackgroundImageFix"/>
<feColorMatrix in="SourceAlpha" type="matrix" values="0 0 0 0 0 0 0 0 0 0 0 0 0 0 0 0 0 0 127 0" result="hardAlpha"/>
<feOffset dx="6"/>
<feGaussianBlur stdDeviation="2"/>
<feComposite in2="hardAlpha" operator="out"/>
<feColorMatrix type="matrix" values="0 0 0 0 0 0 0 0 0 0 0 0 0 0 0 0 0 0 0.25 0"/>
<feBlend mode="normal" in2="BackgroundImageFix" result="effect1_dropShadow_64_477"/>
<feBlend mode="normal" in="SourceGraphic" in2="effect1_dropShadow_64_477" result="shape"/>
</filter>
</defs>
</svg>
